PathFileType	4	(X/Y/Z)	Walk3.trc
DataRate	CameraRate	NumFrames	NumMarkers	Units	OrigDataRate	OrigDataStartFrame	OrigNumFrames
200.000000	200.000000	8	60	mm	200.000000	526	567
Frame#	Times		LFHD		RFHD		CLAV		STRN		LASI		RASI		RACR1		RUA1		RElbow		RFA1		RWRR		RWRU		RCAR		LACR1		LUA1		LElbow		LFA1		LWRR		LWRU		LCAR		RTH3		RTH4		RMFC		RTB1		RTB2		RTB4		LTH1		LTH3		LLFC		LMFC		LTB1		LTB2		LTB4		LMT1		RTB3		LTB3		RMMAL		RMT1		RTH2		LTH4		LTH2		RToe		RElbowM		RLFC		RBHD		LToe		RTH1		RCAL		C7		RBack		RLMAL		RPSI		LMT5		T10		LLMAL		LPSI		LMMAL		LBHD		LCAL		LElbowM
			X1	Y1	Z1	X2	Y2	Z2	X3	Y3	Z3	X4	Y4	Z4	X5	Y5	Z5	X6	Y6	Z6	X7	Y7	Z7	X8	Y8	Z8	X9	Y9	Z9	X10	Y10	Z10	X11	Y11	Z11	X12	Y12	Z12	X13	Y13	Z13	X14	Y14	Z14	X15	Y15	Z15	X16	Y16	Z16	X17	Y17	Z17	X18	Y18	Z18	X19	Y19	Z19	X20	Y20	Z20	X21	Y21	Z21	X22	Y22	Z22	X23	Y23	Z23	X24	Y24	Z24	X25	Y25	Z25	X26	Y26	Z26	X27	Y27	Z27	X28	Y28	Z28	X29	Y29	Z29	X30	Y30	Z30	X31	Y31	Z31	X32	Y32	Z32	X33	Y33	Z33	X34	Y34	Z34	X35	Y35	Z35	X36	Y36	Z36	X37	Y37	Z37	X38	Y38	Z38	X39	Y39	Z39	X40	Y40	Z40	X41	Y41	Z41	X42	Y42	Z42	X43	Y43	Z43	X44	Y44	Z44	X45	Y45	Z45	X46	Y46	Z46	X47	Y47	Z47	X48	Y48	Z48	X49	Y49	Z49	X50	Y50	Z50	X51	Y51	Z51	X52	Y52	Z52	X53	Y53	Z53	X54	Y54	Z54	X55	Y55	Z55	X56	Y56	Z56	X57	Y57	Z57	X58	Y58	Z58	X59	Y59	Z59	X60	Y60	Z60

526	2.63	1256.7	1678.5	41.852	1260.8	1673.4	-57.289	1265.7	1422.2	4.7227	1339.1	1266.8	5.3894	1215.2	996.6	-166.58	1235.6	1007.1	202.17	1154.7	1506.6	177.17	1139.9	1340.6	300.23	1153.5	1192.5	351.33	1188.1	1043.6	373.04	1210.8	922.09	310.35	1205.1	931.37	391.68	1240.2	846.43	363.44	1141.6	1477.8	-174.53	1111.4	1301.4	-259.51	1108.6	1137.6	-309.38	1158.5	1007.4	-322.57	1246.8	904.72	-271.88	1198.9	874.65	-320	1275.7	826.39	-311.05	1271.7	646.28	245.7	1235	723.9	249.08	1297.9	536.12	88.16	1309.1	408.31	174.44	1243.3	340.36	220.82	1267.5	333.22	164.86	1153.2	765.91	-177.56	1159.2	597.54	-147.4	1141.2	512.54	-141.89	1163.9	506.93	14.041	1201.9	385.87	-78.046	1156.7	297.5	-111.23	1188.2	304.8	-57.51	1214.6	36.445	-30.889	1226.3	258.63	154.43	1166.3	222.07	-39.759	1142	149.5	90.886	1238.5	57.353	136.51	1286.1	750.05	236.98	1153.7	682.66	-161.89	1211.9	687.95	-149.05	1274.9	53.131	178.8	1098.1	1116.7	261	1279.9	540.67	241.63	1112.2	1592	-72.098	1265.7	26.066	-74.119	1195.9	801.63	250.08	1037.4	144.19	116.06	1069.6	1495.3	6.8085	1009.6	1382.4	128	1096	152.4	170.02	969.85	1037.3	60.328	1142.7	25.258	-104.54	1009.2	1179	18.193	1055.9	76.901	-33.04	975.46	1049.9	-25.231	1089.4	84.031	50.688	1122.8	1605.3	78.323	1007.6	51.784	27.779	1068	1073.2	-207.17
527	2.635	1262.6	1678.3	42.113	1266.8	1673.3	-57.034	1271.4	1422.2	4.7412	1344.8	1266.7	5.2875	1220.9	996.65	-166.65	1242.1	1007	201.29	1160.3	1506.3	177.09	1144.9	1340.5	300.2	1158	1192.3	351.39	1192	1043.3	373.23	1214.5	921.7	310.65	1208.5	930.99	391.97	1243.5	846	363.84	1147.4	1477.8	-174.64	1118.4	1301.5	-260.28	1117.2	1137.8	-310.72	1168.3	1008.1	-323.91	1257.2	906.16	-272.83	1210	875.77	-321.47	1287.2	828.18	-311.85	1279.7	647.26	244.88	1242.4	724.59	248.57	1306.8	537.33	87.191	1321.3	409.62	173.75	1257.3	339.89	220.08	1282	333.28	164.28	1157.5	765.71	-177.7	1162.3	597.32	-147.52	1143.8	512.34	-141.89	1166.3	506.64	14.049	1203.7	385.32	-77.999	1158.1	297.18	-111.17	1189.6	304.32	-57.445	1214.7	36.411	-30.894	1243	257.46	153.93	1167.3	221.7	-39.673	1162.3	145.75	90.381	1261.3	56.671	136.58	1293.3	751.18	236.47	1157.4	682.49	-162.09	1215.5	687.39	-149.13	1297.5	54.134	178.8	1102.4	1116.7	261	1288.8	541.44	240.66	1118.2	1592	-72.081	1265.8	25.991	-74.226	1202.6	802.03	249.82	1057.7	137.38	115.15	1075.4	1495.2	6.6047	1015.3	1382.3	127.64	1115.9	147.41	169.37	975.67	1037.3	60.408	1142.7	25.28	-104.5	1015	1179	18.035	1056.2	77.085	-32.915	981.08	1050.1	-25.217	1089.7	84.088	50.868	1128.6	1605.2	78.361	1007.8	52.096	27.917	1076.3	1072.8	-209.07
528	2.64	1268.6	1678.1	42.372	1272.8	1673.3	-56.781	1277.2	1422	4.772	1350.4	1266.5	5.2054	1226.5	996.67	-166.67	1248.5	1006.8	200.39	1165.9	1506	177.02	1149.9	1340.3	300.17	1162.5	1192.1	351.47	1195.9	1043	373.42	1218.1	921.27	310.95	1212	930.57	392.27	1246.8	845.52	364.23	1153.2	1477.7	-174.74	1125.5	1301.5	-261.01	1125.9	1138	-312.02	1178.2	1008.8	-325.21	1267.6	907.57	-273.73	1221.1	876.87	-322.89	1298.7	829.95	-312.59	1287.5	648.14	244.05	1249.6	725.18	248.08	1315.5	538.4	86.213	1333.4	410.9	173.09	1271.2	339.44	219.38	1296.4	333.37	163.73	1161.7	765.48	-177.84	1165.4	597.07	-147.66	1146.3	512.12	-141.89	1168.9	506.32	14.048	1205.6	384.75	-77.958	1159.5	296.85	-111.11	1191	303.83	-57.385	1214.8	36.374	-30.896	1259.8	256.39	153.49	1168.3	221.32	-39.588	1182.7	142.18	89.94	1284.1	56.227	136.72	1300.4	752.18	235.97	1161.1	682.29	-162.29	1219.1	686.8	-149.22	1320.1	55.304	178.9	1106.7	1116.6	261	1297.5	542.1	239.68	1124.2	1592.1	-72.054	1265.9	25.918	-74.332	1209.3	802.34	249.6	1078.2	130.74	114.3	1081.2	1495.1	6.4152	1020.9	1382	127.31	1135.9	142.58	168.81	981.48	1037.3	60.492	1142.7	25.303	-104.45	1020.9	1178.8	17.922	1056.5	77.277	-32.788	986.69	1050.1	-25.17	1090	84.147	51.061	1134.5	1604.9	78.403	1008	52.414	28.064	1084.7	1072.4	-210.97
529	2.645	1274.5	1677.8	42.629	1278.8	1673.1	-56.53	1283	1421.9	4.8132	1356.1	1266.2	5.1409	1232.1	996.66	-166.66	1255	1006.5	199.48	1171.6	1505.7	176.96	1154.9	1340.1	300.15	1167	1191.9	351.56	1199.8	1042.6	373.62	1221.8	920.8	311.26	1215.4	930.11	392.57	1250	844.98	364.63	1159.1	1477.6	-174.82	1132.6	1301.4	-261.7	1134.7	1138.1	-313.29	1188.1	1009.5	-326.47	1278	908.96	-274.59	1232.2	877.96	-324.27	1310.2	831.7	-313.28	1295.2	648.91	243.24	1256.8	725.67	247.62	1324	539.31	85.228	1345.4	412.17	172.46	1285.1	339.01	218.71	1310.8	333.51	163.23	1165.8	765.22	-177.98	1168.6	596.8	-147.79	1149	511.88	-141.9	1171.5	505.98	14.036	1207.5	384.16	-77.924	1161	296.49	-111.06	1192.5	303.31	-57.33	1214.8	36.334	-30.896	1276.5	255.42	153.11	1169.3	220.94	-39.504	1203.2	138.81	89.561	1306.9	56.035	136.94	1307.4	753.07	235.48	1164.8	682.06	-162.49	1222.8	686.19	-149.31	1342.6	56.653	179.09	1111.1	1116.5	261	1306.1	542.65	238.71	1130.2	1592	-72.019	1266	25.845	-74.437	1216	802.56	249.4	1098.9	124.27	113.53	1087	1494.9	6.2419	1026.6	1381.8	127.02	1156	137.92	168.32	987.29	1037.3	60.584	1142.7	25.327	-104.4	1026.7	1178.7	17.855	1056.8	77.478	-32.658	992.3	1050.2	-25.089	1090.2	84.212	51.266	1140.4	1604.7	78.451	1008.2	52.741	28.221	1093	1071.9	-212.85
530	2.65	1280.4	1677.5	42.885	1284.8	1672.9	-56.279	1288.9	1421.6	4.8629	1361.8	1265.8	5.0913	1237.8	996.62	-166.6	1261.4	1006.2	198.58	1177.2	1505.3	176.91	1159.9	1339.9	300.13	1171.5	1191.6	351.66	1203.7	1042.2	373.84	1225.4	920.28	311.57	1218.8	929.61	392.87	1253.2	844.38	365.02	1165	1477.5	-174.89	1139.7	1301.3	-262.35	1143.4	1138.2	-314.52	1198	1010.2	-327.69	1288.3	910.31	-275.41	1243.3	879.03	-325.6	1321.7	833.44	-313.92	1302.8	649.56	242.43	1263.9	726.06	247.17	1332.3	540.06	84.239	1357.2	413.42	171.86	1298.8	338.63	218.08	1325	333.69	162.77	1169.9	764.94	-178.14	1171.8	596.49	-147.94	1151.7	511.61	-141.92	1174.2	505.63	14.012	1209.5	383.54	-77.895	1162.5	296.13	-111	1194.1	302.78	-57.279	1214.9	36.29	-30.893	1293.1	254.56	152.79	1170.4	220.53	-39.42	1223.7	135.65	89.244	1329.6	56.107	137.21	1314.3	753.84	234.98	1168.6	681.79	-162.68	1226.4	685.56	-149.4	1365.1	58.192	179.36	1115.5	1116.3	261	1314.5	543.07	237.74	1136.2	1591.9	-71.976	1266.1	25.771	-74.54	1222.5	802.68	249.24	1119.8	118.02	112.83	1092.9	1494.6	6.0863	1032.4	1381.5	126.76	1176.1	133.47	167.92	993.09	1037.2	60.684	1142.7	25.353	-104.34	1032.5	1178.5	17.836	1057.1	77.688	-32.523	997.9	1050.2	-24.971	1090.5	84.284	51.482	1146.3	1604.4	78.503	1008.4	53.077	28.39	1101.4	1071.3	-214.72
531	2.655	1286.4	1677.1	43.141	1290.8	1672.7	-56.028	1294.7	1421.3	4.9195	1367.5	1265.4	5.0541	1243.4	996.54	-166.53	1267.9	1005.7	197.7	1183	1504.9	176.87	1165	1339.6	300.12	1176.1	1191.3	351.77	1207.6	1041.7	374.06	1229.1	919.73	311.88	1222.3	929.08	393.17	1256.4	843.73	365.4	1170.9	1477.3	-174.95	1146.8	1301.1	-262.97	1152.1	1138.3	-315.71	1207.9	1010.8	-328.86	1298.7	911.64	-276.18	1254.4	880.1	-326.87	1333.1	835.15	-314.52	1310.2	650.1	241.64	1270.9	726.33	246.75	1340.4	540.64	83.248	1368.9	414.65	171.28	1312.5	338.28	217.49	1339.2	333.92	162.34	1174	764.63	-178.3	1175.1	596.16	-148.08	1154.4	511.32	-141.94	1176.9	505.25	13.976	1211.6	382.89	-77.872	1164.1	295.74	-110.95	1195.6	302.23	-57.23	1214.9	36.244	-30.889	1309.7	253.82	152.51	1171.5	220.12	-39.337	1244.3	132.73	88.99	1352.3	56.452	137.53	1321.1	754.48	234.5	1172.4	681.49	-162.87	1230.2	684.9	-149.51	1387.5	59.932	179.69	1120	1116.2	260.99	1322.8	543.37	236.77	1142.2	1591.7	-71.926	1266.2	25.696	-74.642	1229	802.71	249.1	1140.8	111.99	112.22	1098.7	1494.3	5.9495	1038.1	1381.1	126.53	1196.4	129.24	167.6	998.89	1037	60.798	1142.8	25.381	-104.28	1038.4	1178.2	17.865	1057.4	77.909	-32.384	1003.5	1050.1	-24.812	1090.8	84.365	51.706	1152.2	1604	78.561	1008.6	53.425	28.569	1109.7	1070.8	-216.56
532	2.66	1292.3	1676.7	43.399	1296.8	1672.4	-55.776	1300.6	1420.9	4.9815	1373.2	1264.9	5.0267	1248.9	996.43	-166.44	1274.3	1005.2	196.84	1188.7	1504.4	176.85	1170	1339.2	300.12	1180.6	1190.9	351.89	1211.6	1041.2	374.29	1232.7	919.13	312.19	1225.7	928.5	393.48	1259.6	843.03	365.79	1176.8	1477	-174.99	1153.9	1300.9	-263.55	1160.9	1138.3	-316.86	1217.8	1011.5	-329.99	1309	912.94	-276.9	1265.4	881.15	-328.1	1344.4	836.84	-315.06	1317.6	650.51	240.86	1277.8	726.5	246.36	1348.4	541.04	82.257	1380.4	415.86	170.71	1326.2	337.97	216.93	1353.3	334.21	161.95	1178	764.3	-178.45	1178.4	595.81	-148.23	1157.3	511	-141.96	1179.8	504.85	13.926	1213.7	382.22	-77.854	1165.6	295.35	-110.9	1197.3	301.66	-57.183	1215	36.196	-30.884	1326.3	253.2	152.29	1172.6	219.7	-39.252	1264.9	130.05	88.799	1374.9	57.08	137.89	1327.9	754.98	234.02	1176.2	681.15	-163.05	1233.9	684.23	-149.61	1409.7	61.88	180.08	1124.4	1116	260.99	1330.9	543.54	235.81	1148.2	1591.5	-71.87	1266.3	25.62	-74.742	1235.5	802.63	248.99	1161.9	106.21	111.71	1104.6	1493.9	5.8321	1043.9	1380.7	126.34	1216.7	125.24	167.37	1004.7	1036.8	60.929	1142.8	25.412	-104.21	1044.2	1177.9	17.943	1057.7	78.143	-32.239	1009.1	1050	-24.611	1091.1	84.455	51.933	1158.1	1603.6	78.624	1008.9	53.787	28.76	1118.1	1070.2	-218.37
533	2.665	1298.3	1676.3	43.659	1302.8	1672	-55.521	1306.5	1420.4	5.0476	1378.9	1264.3	5.0067	1254.5	996.28	-166.34	1280.8	1004.6	196.02	1194.5	1503.9	176.83	1175.1	1338.9	300.12	1185.1	1190.5	352.01	1215.5	1040.7	374.54	1236.4	918.5	312.51	1229.2	927.89	393.8	1262.7	842.27	366.18	1182.7	1476.6	-175.02	1161	1300.6	-264.08	1169.6	1138.3	-317.97	1227.7	1012.1	-331.08	1319.3	914.21	-277.58	1276.4	882.18	-329.26	1355.8	838.51	-315.55	1324.8	650.79	240.11	1284.6	726.55	246	1356.2	541.28	81.266	1391.8	417.05	170.15	1339.7	337.7	216.4	1367.3	334.56	161.58	1182	763.93	-178.6	1181.7	595.42	-148.38	1160.2	510.66	-141.99	1182.8	504.44	13.866	1215.8	381.51	-77.84	1167.3	294.93	-110.84	1198.9	301.07	-57.137	1215.1	36.147	-30.88	1342.7	252.72	152.1	1173.8	219.27	-39.167	1285.5	127.63	88.675	1397.4	57.999	138.27	1334.6	755.36	233.54	1180.1	680.76	-163.23	1237.6	683.53	-149.73	1431.9	64.047	180.51	1129	1115.7	260.97	1339	543.57	234.85	1154.2	1591.2	-71.807	1266.3	25.543	-74.841	1241.9	802.46	248.91	1183.1	100.7	111.3	1110.5	1493.5	5.7347	1049.7	1380.3	126.17	1237.1	121.49	167.22	1010.5	1036.5	61.082	1142.8	25.445	-104.14	1050.1	1177.6	18.07	1058	78.389	-32.087	1014.7	1049.8	-24.365	1091.4	84.555	52.161	1164	1603.2	78.694	1009.1	54.165	28.961	1126.5	1069.6	-220.15
